<svg width="50" height="50" viewBox="0 0 50 50" fill="none" xmlns="http://www.w3.org/2000/svg">
<path d="M21.8 39H12.2C10.4327 39 9 37.5574 9 35.7778V19.6667C9 17.8871 10.4327 16.4444 12.2 16.4444H13.8V13.2222C13.8 11.4426 15.2327 10 17 10H37.8C39.5673 10 41 11.4426 41 13.2222V30.9444C41 32.724 39.5673 34.1667 37.8 34.1667H25V35.7778C25 37.5574 23.5673 39 21.8 39ZM12.2 19.6667V35.7778H21.8V19.6667H12.2ZM17 16.4444H21.8C23.5673 16.4444 25 17.8871 25 19.6667V30.9444H37.8V13.2222H17V16.4444Z" fill="#993399"/>
<circle cx="24.5" cy="24.5" r="23.5" stroke="#993399" stroke-width="2"/>
</svg>
