<svg width="50" height="50" viewBox="0 0 50 50" fill="none" xmlns="http://www.w3.org/2000/svg">
<path d="M22.5989 13.2198L20.6896 15.8171H16.2307C16.7806 17.386 18.5809 18.8655 21.0951 18.3745C21.8404 18.3242 24.3546 17.925 25.3963 18.1705C26.7832 18.5031 26.2051 18.5047 28.6918 20.5003L41.0855 30.7218C41.8448 31.3925 42.816 31.118 43.4883 30.3602C44.1605 29.6008 44.1982 28.2547 43.4388 27.584L27.7497 15.0327C26.7675 14.2443 26.5197 13.1523 26.1808 11.8948C25.5218 9.73365 23.0986 8 20.7202 8C18.8037 8 16.7414 9.65756 15.9828 11.1104H20.6896L22.5989 13.2198ZM33.3617 32.2907L28.5122 23.8735C28.3208 23.5244 27.8368 22.8772 27.439 22.8772H13.9401C13.5424 22.8772 13.0584 23.5244 12.8662 23.8735L8.13825 32.2907H8.01744C7.22122 32.2907 6.56934 32.5802 6.56934 33.3772V40.6177C6.56934 41.4148 7.22122 41.7042 8.01744 41.7042H9.70717V44.238C9.70717 45.4335 10.443 46.411 11.6377 46.411H12.3618C13.5573 46.411 14.4139 45.4335 14.4139 44.238V41.7042H26.9652V44.238C26.9652 45.4327 27.8219 46.411 29.0166 46.411H29.7406C30.9362 46.411 31.672 45.4335 31.672 44.238V41.7042H33.3617C34.1579 41.7042 34.8098 41.4148 34.8098 40.6177V33.3772C34.8098 32.5802 34.1579 32.2907 33.3617 32.2907ZM10.552 37.7215C10.3111 37.7265 10.0717 37.6834 9.84768 37.5947C9.62367 37.506 9.41963 37.3735 9.2475 37.2049C9.07537 37.0363 8.93862 36.8351 8.84526 36.6129C8.7519 36.3908 8.70381 36.1523 8.70381 35.9114C8.70381 35.6705 8.7519 35.4319 8.84526 35.2098C8.93862 34.9877 9.07537 34.7865 9.2475 34.6179C9.41963 34.4493 9.62367 34.3168 9.84768 34.2281C10.0717 34.1394 10.3111 34.0962 10.552 34.1013C11.0256 34.1111 11.4764 34.3062 11.8078 34.6445C12.1393 34.9829 12.3249 35.4377 12.3249 35.9114C12.3249 36.385 12.1393 36.8398 11.8078 37.1782C11.4764 37.5166 11.0256 37.7117 10.552 37.7215ZM12.0001 32.2907L14.9348 26.15C15.1129 25.7938 15.5851 25.2306 15.9828 25.2306H25.3963C25.794 25.2306 26.2655 25.7938 26.4444 26.15L29.379 32.2907H12.0001ZM30.8271 37.7215C30.3469 37.7215 29.8864 37.5308 29.5469 37.1912C29.2073 36.8517 29.0166 36.3912 29.0166 35.911C29.0166 35.4308 29.2073 34.9703 29.5469 34.6308C29.8864 34.2912 30.3469 34.1005 30.8271 34.1005C31.3073 34.1005 31.7678 34.2912 32.1074 34.6308C32.4469 34.9703 32.6376 35.4308 32.6376 35.911C32.6376 36.3912 32.4469 36.8517 32.1074 37.1912C31.7678 37.5308 31.3073 37.7215 30.8271 37.7215Z" fill="#993399"/>
<rect x="5" y="22" width="31" height="27" rx="13.5" fill="#EAEAEA"/>
<path d="M34.3033 26.2029H32.019C31.8928 26.2045 31.7718 26.2533 31.6797 26.3397C30.9502 25.1728 30.1952 24.2387 29.6093 23.6516C27.5715 21.6098 15.3448 21.6098 13.307 23.6516C12.7232 24.2376 11.9723 25.1657 11.2468 26.3244C11.1594 26.249 11.0484 26.2067 10.933 26.205H8.64763C8.36743 26.205 8.13818 26.4357 8.13818 26.7154V27.7466C8.13818 28.0263 8.36234 28.2979 8.63744 28.352L10.0231 28.6174C8.82696 31.2902 8.12188 34.6164 9.23044 37.9487V39.9263C9.23044 40.4909 9.37308 40.9472 9.54935 40.9472H12.1598C12.336 40.9472 12.4787 40.4909 12.4787 39.9263V38.3091C14.8201 38.5337 18.1335 38.7788 21.4571 38.7788C24.7502 38.7788 28.1003 38.5378 30.4377 38.3153V39.9263C30.4377 40.4909 30.5803 40.9472 30.7556 40.9472H33.366C33.5412 40.9472 33.6839 40.4909 33.6839 39.9263L33.6818 37.9477C34.7894 34.6195 34.0863 31.2953 32.8922 28.6225L34.3105 28.352C34.4489 28.3205 34.573 28.2438 34.6633 28.1341C34.7537 28.0244 34.8052 27.8877 34.8097 27.7456V26.7144C34.81 26.6476 34.7971 26.5813 34.7718 26.5195C34.7465 26.4576 34.7092 26.4014 34.6622 26.354C34.6152 26.3065 34.5593 26.2689 34.4977 26.2432C34.4361 26.2174 34.3701 26.2041 34.3033 26.204V26.2029ZM12.4145 34.5C11.9354 34.4841 11.4813 34.2822 11.1481 33.937C10.8149 33.5918 10.6286 33.1304 10.6286 32.6501C10.6286 32.1699 10.8149 31.7084 11.1481 31.3632C11.4813 31.018 11.9354 30.8161 12.4145 30.8002C12.8935 30.8163 13.3475 31.0183 13.6807 31.3636C14.0138 31.7088 14.2 32.1704 14.1999 32.6506C14.1997 33.1309 14.0133 33.5923 13.68 33.9374C13.3466 34.2825 12.8925 34.4842 12.4135 34.5H12.4145ZM10.8617 29.2014C11.8398 26.9584 13.2021 25.2024 14.0274 24.3734C14.6224 23.7762 17.4305 23.1412 21.4571 23.1412C25.4848 23.1412 28.2919 23.7772 28.8879 24.3745C29.7132 25.2014 31.0745 26.9574 32.0526 29.2014C29.8803 29.4424 25.6489 28.8849 21.4582 28.8849C17.2675 28.8849 13.036 29.4424 10.8617 29.2014ZM30.4998 34.5C30.0208 34.4841 29.5667 34.2822 29.2334 33.937C28.9002 33.5918 28.7139 33.1304 28.7139 32.6501C28.7139 32.1699 28.9002 31.7084 29.2334 31.3632C29.5667 31.018 30.0208 30.8161 30.4998 30.8002C30.9789 30.8163 31.4329 31.0183 31.766 31.3636C32.0992 31.7088 32.2854 32.1704 32.2852 32.6506C32.2851 33.1309 32.0987 33.5923 31.7653 33.9374C31.432 34.2825 30.9778 34.4842 30.4988 34.5H30.4998Z" fill="#993399"/>
<circle cx="24.5" cy="25.5" r="23.5" stroke="#993399" stroke-width="2"/>
</svg>
