<svg width="50" height="50" viewBox="0 0 50 50" fill="none" xmlns="http://www.w3.org/2000/svg">
<circle cx="24.5" cy="25.5" r="23.5" stroke="#993399" stroke-width="2"/>
<path d="M40.3924 19.7708H37.6517C37.5003 19.7726 37.3551 19.8296 37.2446 19.9306C36.3694 18.5671 35.4635 17.4755 34.7606 16.7895C32.3157 14.4035 17.6464 14.4035 15.2015 16.7895C14.501 17.4743 13.6001 18.5587 12.7297 19.9127C12.6248 19.8246 12.4916 19.7752 12.3532 19.7732H9.61122C9.27505 19.7732 9 20.0428 9 20.3697V21.5746C9 21.9015 9.26894 22.2188 9.599 22.282L11.2615 22.5922C9.82637 25.7155 8.98044 29.6022 10.3105 33.4962V35.807C10.3105 36.4667 10.4816 37 10.6931 37H13.825C14.0365 37 14.2076 36.4667 14.2076 35.807V33.9173C17.0168 34.1798 20.9922 34.4661 24.9798 34.4661C28.9308 34.4661 32.9502 34.1845 35.7545 33.9245V35.807C35.7545 36.4667 35.9256 37 36.1359 37H39.2678C39.4781 37 39.6492 36.4667 39.6492 35.807L39.6467 33.495C40.9755 29.6058 40.1321 25.7214 38.6994 22.5982L40.401 22.282C40.5671 22.2452 40.716 22.1556 40.8243 22.0274C40.9327 21.8992 40.9945 21.7395 41 21.5734V20.3685C41.0003 20.2904 40.9848 20.2129 40.9545 20.1407C40.9241 20.0684 40.8794 20.0027 40.823 19.9473C40.7666 19.8918 40.6995 19.8478 40.6256 19.8178C40.5517 19.7877 40.4725 19.7721 40.3924 19.772V19.7708ZM14.1306 29.4662C13.5559 29.4476 13.0111 29.2117 12.6112 28.8083C12.2114 28.405 11.9879 27.8657 11.9879 27.3045C11.9879 26.7433 12.2114 26.2041 12.6112 25.8007C13.0111 25.3974 13.5559 25.1615 14.1306 25.1428C14.7053 25.1616 15.2501 25.3977 15.6498 25.8012C16.0495 26.2046 16.2729 26.7439 16.2727 27.3051C16.2725 27.8663 16.0489 28.4055 15.6489 28.8087C15.249 29.212 14.7041 29.4478 14.1294 29.4662H14.1306ZM12.2676 23.2746C13.4412 20.6536 15.0756 18.6016 16.0657 17.6329C16.7797 16.935 20.1487 16.193 24.9798 16.193C29.8122 16.193 33.18 16.9362 33.8951 17.6341C34.8853 18.6005 36.5185 20.6524 37.6921 23.2746C35.0858 23.5562 30.009 22.9048 24.9811 22.9048C19.9531 22.9048 14.8763 23.5562 12.2676 23.2746ZM35.829 29.4662C35.2543 29.4476 34.7095 29.2117 34.3097 28.8083C33.9099 28.405 33.6863 27.8657 33.6863 27.3045C33.6863 26.7433 33.9099 26.2041 34.3097 25.8007C34.7095 25.3974 35.2543 25.1615 35.829 25.1428C36.4038 25.1616 36.9485 25.3977 37.3482 25.8012C37.7479 26.2046 37.9713 26.7439 37.9711 27.3051C37.971 27.8663 37.7473 28.4055 37.3474 28.8087C36.9474 29.212 36.4026 29.4478 35.8278 29.4662H35.829Z" fill="#993399"/>
</svg>
