<svg width="21" height="20" viewBox="0 0 21 20" fill="none" xmlns="http://www.w3.org/2000/svg">
<path d="M15.595 19.006H15.567C11.7253 18.9115 8.05928 17.3775 5.295 14.708C2.62452 11.9463 1.08969 8.28159 0.994885 4.44103C0.989227 3.90303 1.20046 3.38539 1.581 3.00503L4.295 0.293031C4.6855 -0.0973513 5.3185 -0.0973513 5.709 0.293031L9.709 4.29303C10.0994 4.68353 10.0994 5.31653 9.709 5.70703L8.113 7.30003C8.40901 8.40595 8.95427 9.42943 9.707 10.292C10.568 11.045 11.5902 11.5907 12.695 11.887L14.295 10.293C14.6855 9.90265 15.3185 9.90265 15.709 10.293L19.709 14.293C20.0994 14.6835 20.0994 15.3165 19.709 15.707L16.995 18.42C16.6249 18.7939 16.1211 19.0048 15.595 19.006ZM5 2.41503H4.995L2.995 4.41903C3.07655 7.73769 4.40132 10.9047 6.707 13.293C9.09543 15.5979 12.2618 16.9226 15.58 17.005L17.587 15L14.995 12.415L13.702 13.707C13.517 13.8941 13.2651 13.9995 13.002 14C12.9318 14.0001 12.8617 13.9927 12.793 13.978C11.1266 13.6094 9.57939 12.8286 8.293 11.707C7.17145 10.4206 6.39061 8.8734 6.022 7.20703C5.95246 6.8758 6.05519 6.53187 6.295 6.29303L7.587 5.00003L5 2.41503Z" fill="#2E3A59"/>
</svg>
