<svg width="56" height="56" viewBox="0 0 56 56" fill="none" xmlns="http://www.w3.org/2000/svg">
<path d="M40.2734 43L29.2609 31.9863C24.362 35.4689 17.6115 34.617 13.7314 30.0265C9.85142 25.436 10.1363 18.6384 14.3868 14.3886C18.6363 10.1369 25.435 9.85082 30.0267 13.7304C34.6183 17.61 35.4707 24.3608 31.9875 29.2598L43 40.2735L40.2753 42.9981L40.2734 43ZM22.5609 14.8548C18.9069 14.854 15.7544 17.4188 15.0121 20.9965C14.2698 24.5741 16.1417 28.1813 19.4945 29.6341C22.8474 31.0868 26.7595 29.9859 28.8625 26.9978C30.9655 24.0097 30.6812 19.9558 28.1818 17.2904L29.3476 18.4465L28.0334 17.1362L28.0103 17.1131C26.5686 15.6625 24.6062 14.8493 22.5609 14.8548Z" fill="#993399"/>
<path d="M16.6667 30H15V29.1579C15.0037 25.9039 17.6132 23.2669 20.8333 23.2632H24.1667C27.3868 23.2669 29.9963 25.9039 30 29.1579V30H28.3333V29.1579C28.3306 26.8336 26.4667 24.9502 24.1667 24.9474H20.8333C18.5333 24.9502 16.6694 26.8336 16.6667 29.1579V30ZM22.5 22.4211C20.1988 22.4211 18.3333 20.5359 18.3333 18.2105C18.3333 15.8851 20.1988 14 22.5 14C24.8012 14 26.6667 15.8851 26.6667 18.2105C26.6639 20.5348 24.8 22.4183 22.5 22.4211ZM22.5 15.6842C21.1193 15.6842 20 16.8153 20 18.2105C20 19.6058 21.1193 20.7368 22.5 20.7368C23.8807 20.7368 25 19.6058 25 18.2105C25 16.8153 23.8807 15.6842 22.5 15.6842Z" fill="#993399"/>
<circle cx="27.5" cy="27.5" r="23.5" stroke="#993399" stroke-width="2"/>
</svg>
