<svg width="56" height="56" viewBox="0 0 56 56" fill="none" xmlns="http://www.w3.org/2000/svg">
<path d="M30.4078 45H24.5928C23.8421 45 23.1926 44.4931 23.032 43.7817L22.3818 40.8615C21.5144 40.4928 20.6919 40.0317 19.9295 39.4867L16.9948 40.3934C16.2791 40.6148 15.5011 40.3226 15.1257 39.6912L12.2118 34.8072C11.8405 34.1756 11.9684 33.3789 12.5201 32.8867L14.7966 30.8717C14.6931 29.959 14.6931 29.0379 14.7966 28.1251L12.5201 26.1148C11.9676 25.6225 11.8396 24.8248 12.2118 24.1928L15.1193 19.3056C15.4947 18.6743 16.2727 18.3821 16.9884 18.6035L19.9231 19.5103C20.313 19.2299 20.7189 18.9712 21.1389 18.7352C21.542 18.5147 21.9569 18.315 22.3818 18.1369L23.0336 15.2198C23.1934 14.5084 23.8422 14.0008 24.5928 14H30.4078C31.1584 14.0008 31.8072 14.5084 31.967 15.2198L32.6252 18.1385C33.0738 18.3299 33.5107 18.5463 33.9336 18.7864C34.3287 19.0077 34.7105 19.2504 35.0775 19.5133L38.0138 18.6066C38.729 18.386 39.5061 18.6781 39.8813 19.3087L42.7888 24.1959C43.1601 24.8275 43.0322 25.6242 42.4805 26.1163L40.204 28.1313C40.3075 29.0441 40.3075 29.9652 40.204 30.8779L42.4805 32.893C43.0322 33.3851 43.1601 34.1818 42.7888 34.8134L39.8813 39.7005C39.5061 40.3312 38.729 40.6233 38.0138 40.4027L35.0775 39.4959C34.7059 39.7615 34.3198 40.0072 33.9208 40.2322C33.502 40.4677 33.07 40.6803 32.6268 40.8693L31.967 43.7817C31.8065 44.4926 31.1579 44.9994 30.4078 45ZM27.4939 23.3C23.9647 23.3 21.1037 26.0758 21.1037 29.5C21.1037 32.9242 23.9647 35.7 27.4939 35.7C31.0231 35.7 33.8841 32.9242 33.8841 29.5C33.8841 26.0758 31.0231 23.3 27.4939 23.3Z" fill="#993399"/>
<circle cx="27.5" cy="29.5" r="23.5" stroke="#993399" stroke-width="2"/>
</svg>
