<svg width="52" height="52" viewBox="0 0 52 52" fill="none" xmlns="http://www.w3.org/2000/svg">
<circle cx="26" cy="26" r="26" fill="white"/>
<ellipse cx="26" cy="29" rx="16" ry="19" fill="#993399"/>
<path d="M4.33765 26.0043C4.34017 36.663 12.0909 45.7384 22.6178 47.4088V32.266H17.121V26.0043H22.6243V21.2377C22.3783 18.979 23.1498 16.7279 24.7295 15.095C26.3093 13.4621 28.5336 12.6165 30.7992 12.7877C32.4253 12.8139 34.0474 12.9588 35.6525 13.221V18.5488H32.9138C31.971 18.4253 31.0231 18.7367 30.3372 19.3953C29.6512 20.0538 29.3015 20.9882 29.3865 21.9353V26.0043H35.3903L34.4305 32.2682H29.3865V47.4088C40.7712 45.6096 48.7545 35.2122 47.5529 23.749C46.3513 12.2858 36.3854 3.76984 24.8751 4.37055C13.3648 4.97125 4.33948 14.4783 4.33765 26.0043Z" fill="white"/>
</svg>
