<svg width="52" height="52" viewBox="0 0 52 52" fill="none" xmlns="http://www.w3.org/2000/svg">
<circle cx="26" cy="26" r="26" fill="white"/>
<path d="M26.0043 45.5888C20.6743 45.5888 20.0459 45.5606 17.9659 45.4696C16.3439 45.4163 14.7429 45.0866 13.2318 44.4946C10.6173 43.4772 8.54991 41.409 7.53344 38.7941C6.96427 37.2775 6.65728 35.6752 6.62561 34.0556C6.50427 31.98 6.50427 31.2996 6.50427 26.0108C6.50427 20.6656 6.53244 20.0416 6.62561 17.9725C6.65797 16.3551 6.96495 14.755 7.53344 13.2405C8.54881 10.6221 10.6195 8.55218 13.2383 7.5378C14.752 6.96624 16.3525 6.65845 17.9703 6.6278C20.0394 6.5108 20.7198 6.5108 26.0043 6.5108C31.3776 6.5108 31.9951 6.53897 34.0426 6.6278C35.6646 6.65871 37.2693 6.96647 38.7876 7.5378C41.4056 8.55333 43.4759 10.6229 44.4924 13.2405C45.0712 14.7771 45.3798 16.4022 45.4046 18.044C45.5259 20.1196 45.5259 20.7978 45.5259 26.0845C45.5259 31.3711 45.4956 32.0645 45.4046 34.1163C45.3724 35.7374 45.0646 37.3412 44.4946 38.8591C43.4755 41.4758 41.4051 43.5447 38.7876 44.5618C37.2715 45.1299 35.67 45.4368 34.0513 45.4696C31.9821 45.5888 31.3039 45.5888 26.0043 45.5888ZM25.9306 9.94064C20.6309 9.94064 20.0806 9.96664 18.0114 10.0598C16.7764 10.0762 15.5533 10.3041 14.3953 10.7336C12.6852 11.388 11.3321 12.7356 10.6708 14.443C10.2379 15.6136 10.01 16.8501 9.99694 18.0981C9.88211 20.1976 9.88211 20.748 9.88211 26.0108C9.88211 31.2108 9.90161 31.8413 9.99694 33.9278C10.0163 35.1632 10.2441 36.3865 10.6708 37.5461C11.3331 39.2524 12.686 40.599 14.3953 41.2533C15.5525 41.6857 16.7761 41.9137 18.0114 41.9271C20.1088 42.0485 20.6613 42.0485 25.9306 42.0485C31.2454 42.0485 31.7958 42.0225 33.8476 41.9271C35.0835 41.9121 36.3075 41.6841 37.4659 41.2533C39.1656 40.5933 40.5099 39.2498 41.1709 37.5505C41.603 36.3788 41.8309 35.1418 41.8448 33.8931H41.8686C41.9618 31.8218 41.9618 31.2693 41.9618 25.9761C41.9618 20.683 41.9379 20.1261 41.8448 18.057C41.8253 16.8229 41.5975 15.6011 41.1709 14.443C40.5115 12.7412 39.1669 11.3951 37.4659 10.7336C36.3078 10.3019 35.0836 10.0739 33.8476 10.0598C31.7524 9.94064 31.2043 9.94064 25.9306 9.94064ZM26.0043 36.0186C21.9526 36.0213 18.2983 33.5827 16.7458 29.8403C15.1933 26.0979 16.0482 21.7887 18.912 18.9225C21.7757 16.0563 26.0841 15.1976 29.8279 16.7469C33.5717 18.2962 36.0134 21.9483 36.0143 26C36.0083 31.5273 31.5316 36.0079 26.0043 36.0186ZM26.0043 19.4956C22.4144 19.4956 19.5043 22.4058 19.5043 25.9956C19.5043 29.5855 22.4144 32.4956 26.0043 32.4956C29.5941 32.4956 32.5043 29.5855 32.5043 25.9956C32.4959 22.4092 29.5907 19.504 26.0043 19.4956ZM36.4043 17.9508C35.116 17.946 34.0749 16.8991 34.0773 15.6108C34.0797 14.3226 35.1247 13.2795 36.4129 13.2795C37.7012 13.2795 38.7462 14.3225 38.7486 15.6108C38.7492 16.2323 38.5022 16.8285 38.0623 17.2676C37.6224 17.7067 37.0258 17.9525 36.4043 17.9508Z" fill="#993399"/>
</svg>
