<svg width="52" height="52" viewBox="0 0 52 52" fill="none" xmlns="http://www.w3.org/2000/svg">
<circle cx="26" cy="26" r="26" fill="white"/>
<path d="M27.8055 41H20.5833V19.6667H27.8055V23.2222C29.345 21.2938 31.6796 20.1441 34.1701 20.088C38.6489 20.1125 42.2629 23.7011 42.25 28.1111V41H35.0277V29C34.7389 27.0136 33.0087 25.5397 30.9706 25.544C30.0792 25.5717 29.2378 25.956 28.6405 26.6082C28.0432 27.2604 27.7417 28.1241 27.8055 29V41ZM16.9722 41H9.75V19.6667H16.9722V41ZM13.3611 16.1111C11.3667 16.1111 9.75 14.5192 9.75 12.5556C9.75 10.5919 11.3667 9 13.3611 9C15.3555 9 16.9722 10.5919 16.9722 12.5556C16.9722 13.4985 16.5918 14.4029 15.9145 15.0697C15.2373 15.7365 14.3188 16.1111 13.3611 16.1111Z" fill="#993399"/>
</svg>
