<svg width="52" height="52" viewBox="0 0 52 52" fill="none" xmlns="http://www.w3.org/2000/svg">
<circle cx="26" cy="26" r="26" fill="white"/>
<path d="M26.0223 38H25.9863C25.8748 38 14.7186 37.9786 11.904 37.2203C10.3562 36.8067 9.14746 35.6069 8.73137 34.0712C8.22523 31.2386 7.98082 28.366 8.00117 25.4893C7.9881 22.6079 8.23912 19.7312 8.75115 16.8949C9.17867 15.3578 10.3821 14.1525 11.9273 13.7137C14.6647 13 25.5133 13 25.9737 13H26.0115C26.1248 13 37.3098 13.0214 40.0957 13.7797C41.6402 14.1954 42.8465 15.3928 43.2647 16.9252C43.7869 19.7684 44.032 22.6548 43.9967 25.5446C44.0093 28.4226 43.7576 31.2957 43.2449 34.1283C42.8234 35.6621 41.6139 36.8592 40.0669 37.2738C37.3332 37.9929 26.4827 38 26.0223 38ZM22.4253 20.1457L22.4163 30.8508L31.7901 25.4982L22.4253 20.1457Z" fill="#993399"/>
</svg>
